<svg width="34" height="34" viewBox="0 0 34 34" fill="none" xmlns="http://www.w3.org/2000/svg">
<path d="M0 16C0 7.16344 7.16344 0 16 0H34V34H0V16Z" fill="#48B2E7"/>
<path d="M23 17.998H18V22.998C18 23.2633 17.8946 23.5176 17.7071 23.7052C17.5196 23.8927 17.2652 23.998 17 23.998C16.7348 23.998 16.4804 23.8927 16.2929 23.7052C16.1054 23.5176 16 23.2633 16 22.998V17.998H11C10.7348 17.998 10.4804 17.8927 10.2929 17.7052C10.1054 17.5176 10 17.2633 10 16.998C10 16.7328 10.1054 16.4785 10.2929 16.2909C10.4804 16.1034 10.7348 15.998 11 15.998H16V10.998C16 10.7328 16.1054 10.4785 16.2929 10.2909C16.4804 10.1034 16.7348 9.99805 17 9.99805C17.2652 9.99805 17.5196 10.1034 17.7071 10.2909C17.8946 10.4785 18 10.7328 18 10.998V15.998H23C23.2652 15.998 23.5196 16.1034 23.7071 16.2909C23.8946 16.4785 24 16.7328 24 16.998C24 17.2633 23.8946 17.5176 23.7071 17.7052C23.5196 17.8927 23.2652 17.998 23 17.998Z" fill="white"/>
</svg>
