<svg width="27" height="27" viewBox="0 0 27 27" fill="none" xmlns="http://www.w3.org/2000/svg">
<circle cx="13.5" cy="13.5" r="12.5" fill="#48B2E7" stroke="#F7F7F9"/>
<path fill-rule="evenodd" clip-rule="evenodd" d="M15.3795 11.2643L11.4516 14.9517C11.2711 15.121 10.9771 15.121 10.7965 14.9517C10.616 14.7824 10.616 14.5068 10.7965 14.3375L14.7245 10.6501C14.905 10.4808 15.199 10.4808 15.3795 10.6501C15.4698 10.7347 15.5161 10.8454 15.5161 10.9561C15.5161 11.069 15.4698 11.1797 15.3795 11.2643ZM16.8534 10.8044L15.8697 9.88418C15.4184 9.46096 14.6846 9.46096 14.2333 9.88418L10.016 13.8451C9.88405 13.9666 9.78684 14.1185 9.72897 14.2856L8.88181 16.8163C8.76839 17.1505 9.10402 17.4652 9.46047 17.361L12.164 16.5645C12.3399 16.5124 12.5019 16.4213 12.6339 16.2976L16.8534 12.3367C17.3048 11.9135 17.3048 11.2276 16.8534 10.8044Z" fill="white"/>
</svg>
