<svg width="18" height="18" viewBox="0 0 18 18" fill="none" xmlns="http://www.w3.org/2000/svg">
<rect width="18" height="18" rx="6" fill="#48B2E7"/>
<path fill-rule="evenodd" clip-rule="evenodd" d="M8.85225 5.28009C8.89894 5.26008 8.9492 5.24976 9 5.24976C9.0508 5.24976 9.10106 5.26008 9.14775 5.28009L11.5455 6.30796C11.6804 6.36581 11.7954 6.46199 11.8762 6.58458C11.957 6.70717 12.0001 6.85077 12 6.99759V9.57009C12 10.0328 11.8776 10.4873 11.6453 10.8875C11.4131 11.2877 11.0791 11.6194 10.6774 11.849L9.186 12.701C9.12935 12.7333 9.06524 12.7503 9 12.7503C8.93476 12.7503 8.87065 12.7333 8.814 12.701L7.32263 11.849C6.92076 11.6193 6.58676 11.2875 6.35448 10.8872C6.12221 10.4868 5.99991 10.0322 6 9.56934V6.99759C6.00002 6.85084 6.04309 6.70731 6.12387 6.5848C6.20466 6.46228 6.31962 6.36616 6.4545 6.30834L8.85225 5.28009ZM10.3901 8.51521C10.4584 8.44449 10.4962 8.34976 10.4954 8.25144C10.4945 8.15312 10.4551 8.05906 10.3856 7.98953C10.316 7.92 10.222 7.88057 10.1237 7.87971C10.0253 7.87886 9.9306 7.91666 9.85988 7.98496L8.625 9.21984L8.14012 8.73496C8.0694 8.66666 7.97467 8.62886 7.87635 8.62971C7.77803 8.63057 7.68397 8.67 7.61444 8.73953C7.54491 8.80906 7.50548 8.90312 7.50462 9.00144C7.50377 9.09976 7.54157 9.19449 7.60988 9.26521L8.35988 10.0152C8.4302 10.0855 8.52556 10.125 8.625 10.125C8.72444 10.125 8.8198 10.0855 8.89012 10.0152L10.3901 8.51521Z" fill="#2B2B2B"/>
</svg>
